<svg xmlns="http://www.w3.org/2000/svg" viewBox="0 0 386 386"><defs><style>.cls-1{fill:#1084b5;}.cls-2{fill:#fff;}</style></defs><g id="Layer_3" data-name="Layer 3"><circle class="cls-1" cx="192.68" cy="193.3" r="150"/></g><g id="Layer_3_copy" data-name="Layer 3 copy"><path class="cls-1" d="M193,32A161,161,0,0,1,306.84,306.84,161,161,0,1,1,79.16,79.16,159.93,159.93,0,0,1,193,32m0-22A183,183,0,1,0,376,193,183,183,0,0,0,193,10Z"/></g><g id="Layer_2_copy" data-name="Layer 2 copy"><circle class="cls-2" cx="194" cy="107.07" r="20"/><path class="cls-2" d="M270.76,132.66H117.24a8.15,8.15,0,0,0-8.14,6.73,8,8,0,0,0,7.9,9.27l43.38,1.63a10,10,0,0,1,9.62,10v39.17a49.56,49.56,0,0,1-1.09,10.37l-14.35,67.73a8,8,0,1,0,15.52,3.87l19.19-68.25a5,5,0,0,1,4.82-3.65h0a4.77,4.77,0,0,1,4.59,3.48l19.24,68.42a8,8,0,1,0,15.52-3.87l-14.35-67.73A49.56,49.56,0,0,1,218,199.46V160.29a10,10,0,0,1,9.62-10L271,148.66a8,8,0,0,0,7.9-9.27A8.15,8.15,0,0,0,270.76,132.66Z"/></g></svg>