<svg id="Layer_1" data-name="Layer 1" xmlns="http://www.w3.org/2000/svg" viewBox="0 0 640 512"><defs><style>.cls-1{fill:#fff;}</style></defs><path class="cls-1" d="M18.32,255.78,192,224l-91.28,68.69C90.64,302.73,97.78,320,112,320h222.7A247.35,247.35,0,0,1,320,236.58V194.31l-119.73-87.6a64,64,0,0,0-77.06,4.59L5.81,227.64C-6.57,238,2.36,258.06,18.32,255.78Zm556.87,34.1L474.53,239.57A48,48,0,0,1,448,196.65V160h64l28.09,22.63A32,32,0,0,0,562.72,192h31a32,32,0,0,0,28.62-17.69l14.31-28.62a32,32,0,0,0-3-33.51L559.07,12.76A32,32,0,0,0,533.47,0H296a8,8,0,0,0-5.66,13.61L352,64,292.42,88.8a8,8,0,0,0,0,14.31L352,128V236.58A215.61,215.61,0,0,0,448,416c-195.59,6.81-344.56,41-434.1,60.91A17.78,17.78,0,0,0,17.76,512H516.84c63.29,0,119.61-47.56,123-110.76a116.7,116.7,0,0,0-64.64-111.36Zm-86-223.63,45.65,11.41c-2.75,10.91-12.47,18.89-24.13,18.26-13-.71-25.85-12.53-21.52-29.67Z"/></svg>