<?xml version="1.0" encoding="utf-8"?>
<!-- Generator: Adobe Illustrator 26.0.2, SVG Export Plug-In . SVG Version: 6.00 Build 0)  -->
<svg version="1.1" id="Layer_1" xmlns="http://www.w3.org/2000/svg" xmlns:xlink="http://www.w3.org/1999/xlink" x="0px" y="0px"
	 viewBox="0 0 512 512" style="enable-background:new 0 0 512 512;" xml:space="preserve">
<style type="text/css">
	.st0{fill:none;stroke:#000000;stroke-width:36;stroke-miterlimit:10;}
</style>
<path class="st0" d="M61,21h102.3c22.1,0,40,17.9,40,40v102.3c0,22.1-17.9,40-40,40H61c-22.1,0-40-17.9-40-40V61
	C21,38.9,38.9,21,61,21z"/>
<path class="st0" d="M349.7,21H452c22.1,0,40,17.9,40,40v102.3c0,22.1-17.9,40-40,40H349.7c-22.1,0-40-17.9-40-40V61
	C309.7,38.9,327.6,21,349.7,21z"/>
<path class="st0" d="M61,309.7h102.3c22.1,0,40,17.9,40,40V452c0,22.1-17.9,40-40,40H61c-22.1,0-40-17.9-40-40V349.7
	C21,327.6,38.9,309.7,61,309.7z"/>
<path class="st0" d="M349.7,309.7H452c22.1,0,40,17.9,40,40V452c0,22.1-17.9,40-40,40H349.7c-22.1,0-40-17.9-40-40V349.7
	C309.7,327.6,327.6,309.7,349.7,309.7z"/>
</svg>
